<svg xmlns="http://www.w3.org/2000/svg" width="148.462" height="40" viewBox="0 0 148.462 40">
  <g id="f-logo" opacity="0.8">
    <path id="패스_1" data-name="패스 1" d="M150.683,210.59c-2.8-1.9-4.665-2.516-4.665-3.853,0-.682.55-1.6,2.59-1.6a6.848,6.848,0,0,1,4.709,2.277l.059.025.08-.082v-4.515a14.106,14.106,0,0,0-5.7-1.246c-5.7,0-8.032,3.287-8.032,5.734,0,2.132,1.268,3.426,2.808,4.534,2.459,1.745,5.625,2.8,5.625,4.85,0,1.042-1.047,2.824-4.455,2.824a12.99,12.99,0,0,1-11.543-7.684c.9,8.652,7.553,12.4,12.432,12.4,6.784,0,9.886-4.126,9.886-7.545,0-2.391-1.139-4.324-3.791-6.127" transform="translate(-120.558 -184.262)" fill="#809875"/>
    <path id="패스_2" data-name="패스 2" d="M37.043,135.784a5.679,5.679,0,0,0-4.6,2.448v-1.91H25.42l-.087.082.022.05c.9,1.046,1.248,1.441,1.248,3.989V155.2H32.44V143.02c0-2.459,1.281-3.039,2.191-3.039s2.18.58,2.18,3.039v5.1c0,4.154,2.613,6.887,5.843,8.414V143.072c0-4.918-2.023-7.288-5.612-7.288" transform="translate(-25.333 -125.543)" fill="#809875"/>
    <path id="패스_3" data-name="패스 3" d="M126.116,75.143A19.616,19.616,0,1,0,98.37,47.492a19.616,19.616,0,0,1,27.746,27.652" transform="translate(-90.44 -40.932)" fill="#809875"/>
    <path id="패스_4" data-name="패스 4" d="M507.056,145.77h-4.133v13.525h-.03l-8.436-13.525h-4.721v19.385H493.9v-13.8h.082l7.063,11.22c2.042,2.874,3.932,2.528,6.01,2.562Z" transform="translate(-439.365 -134.446)" fill="#809875"/>
    <path id="패스_5" data-name="패스 5" d="M681.694,154.64a7.742,7.742,0,0,0-3.907-.749h-5.068q-2.536,0-2.51-2.161.029-2.607,3.064-2.605h6.511v.007c.031,0,.059-.007.092-.007h.025v0c3.112-.085,2.923-3.33,2.923-3.33l-.008-.052h-3.032v0h-7.121a7.255,7.255,0,0,0-4.644,1.247q-1.72,1.413-1.718,4.575,0,5.6,6.072,5.6h4.515a3.32,3.32,0,0,1,2.137.569,2.119,2.119,0,0,1,.659,1.789,1.933,1.933,0,0,1-.949,1.83,4.554,4.554,0,0,1-2.087.36h-9.584v3.382h10.193a7.291,7.291,0,0,0,4.67-1.25q1.716-1.383,1.694-4.517-.03-3.521-1.929-4.685" transform="translate(-596.779 -134.419)" fill="#809875"/>
    <path id="패스_6" data-name="패스 6" d="M866.711,142.237l-.082-.242.082.24a17.494,17.494,0,0,0,4.7-2.375,10.5,10.5,0,0,0,2.819-3.086,9.548,9.548,0,0,0,2.464,2.647,13.847,13.847,0,0,0,4.765,2.21l.171.052.183.053,1.7-2.613-.739-.157a9.52,9.52,0,0,1-5.063-2.371,6.033,6.033,0,0,1-1.915-4.51v-1.131h-3.108v1.094a6.731,6.731,0,0,1-2.062,4.837,9.77,9.77,0,0,1-5.243,2.735l-.36.075-.369.074,1.7,2.587Zm-8.832-12.222H849.79v2.82h8.089Zm32.836,9.6c-.05-.063-.037-.045-.045-.081v-5.317a.91.91,0,0,1,.012-.141h1.809a.265.265,0,0,1,.057,0c0,.032.007.077.007.137l0,5.227a.843.843,0,0,1-.007.173h-1.772c-.025,0-.045,0-.057,0m-.188.176.156-.12,0,.012.055-.039Zm4.941,2.352c1.448-.138,2.6-.25,3.439-.352l.284-.047.246-.043-.39-2.6-1.314.1-1.166.151-1.183.06h0v-5.237c0-.041,0-.074,0-.1h2.627v-2.72H885.4v2.72h2.476c0,.037.006.083.006.141v5.306a.178.178,0,0,1,0,.021l-.036.022-.027.052a.686.686,0,0,1-.071,0h-2.735v2.766h6.248c1.07,0,2.49-.072,4.212-.239m-43.383-3.259-.151.207.144-.212a1.365,1.365,0,0,1-.64-1.2,1.522,1.522,0,0,1,.572-1.234,2.24,2.24,0,0,1,1.5-.521h.309a2.265,2.265,0,0,1,1.461.508,1.546,1.546,0,0,1,.631,1.271,1.381,1.381,0,0,1-.631,1.179,2.581,2.581,0,0,1-1.581.48,2.678,2.678,0,0,1-1.609-.48m11.961,3.282h-8.816s0,0,0,0a.2.2,0,0,1-.027-.1v-.372a4.626,4.626,0,0,0,2.183-1.206,3.724,3.724,0,0,0,1.149-2.782,3.677,3.677,0,0,0-.3-1.488c-.046-.1-.095-.194-.147-.291h3.568v-2.665H845.762v2.665h3.392a3.048,3.048,0,0,0-.134.3,4.279,4.279,0,0,0-.211,1.453,3.84,3.84,0,0,0,1.2,2.845,5.414,5.414,0,0,0,2.363,1.212v.327c-.007.038.008.012-.027.054l-.02.018-.014.022s-.006,0-.006.008h-8.763v2.718h20.5Zm-5.935,8.138c-.013.018-.035.048-.063.087h-8.936v-2.117a.9.9,0,0,1,.005-.1h8.977a.289.289,0,0,1,.016.1Zm2.445-4.167a1.737,1.737,0,0,0-1.344-.587H848.051a1.934,1.934,0,0,0-1.432.567,1.973,1.973,0,0,0-.469,1.4v3.466a2.3,2.3,0,0,0,.45,1.442,1.973,1.973,0,0,0,1.5.642h11.111a1.808,1.808,0,0,0,1.382-.628,2.058,2.058,0,0,0,.471-1.381v-3.558a1.819,1.819,0,0,0-.509-1.357m39.328,2.01a2.325,2.325,0,0,1-.851,1.817l.168.193-.174-.186a2.983,2.983,0,0,1-4.07,0,2.336,2.336,0,0,1-.833-1.826,2.451,2.451,0,0,1,.82-1.842,3.186,3.186,0,0,1,4.072.013,2.388,2.388,0,0,1,.868,1.829m-6.837-3.747a5.064,5.064,0,0,0-1.7,3.824,4.991,4.991,0,0,0,1.721,3.735,5.785,5.785,0,0,0,3.972,1.55h0a5.781,5.781,0,0,0,3.922-1.549,4.946,4.946,0,0,0,1.753-3.736,5.066,5.066,0,0,0-1.735-3.824,6.042,6.042,0,0,0-.613-.483H903.3V130.5h-2.989v13.378a5.806,5.806,0,0,0-7.265.522m-8.6,1.6h-5.74c0-.022,0-.05,0-.082v-4.45h-2.866v4.45c0,.026,0,.04,0,.045l-.025.022-.005.014H872.3a.126.126,0,0,1-.038,0h0l0,0a.556.556,0,0,1,0-.073v-4.2h-2.85v4.2a.329.329,0,0,1-.006.066c-.016.02,0,.02-.026.016h-5.447v2.766h20.519Zm-17.74-3.762-.082-.242.082.24a17.494,17.494,0,0,0,4.7-2.375,10.5,10.5,0,0,0,2.819-3.086,9.548,9.548,0,0,0,2.464,2.647,13.847,13.847,0,0,0,4.765,2.21l.171.052.183.053,1.7-2.613-.739-.157a9.52,9.52,0,0,1-5.063-2.371,6.033,6.033,0,0,1-1.915-4.51v-1.131h-3.108v1.094a6.731,6.731,0,0,1-2.062,4.837,9.77,9.77,0,0,1-5.243,2.735l-.36.075-.369.074,1.7,2.587Zm-8.832-12.222H849.79v2.82h8.089Zm32.836,9.6c-.05-.063-.037-.045-.045-.081v-5.317a.91.91,0,0,1,.012-.141h1.809a.265.265,0,0,1,.057,0c0,.032.007.077.007.137l0,5.227a.843.843,0,0,1-.007.173h-1.772c-.025,0-.045,0-.057,0m-.188.176.156-.12,0,.012.055-.039Zm4.941,2.352c1.448-.138,2.6-.25,3.439-.352l.284-.047.246-.043-.39-2.6-1.314.1-1.166.151-1.183.06h0v-5.237c0-.041,0-.074,0-.1h2.627v-2.72H885.4v2.72h2.476c0,.037.006.083.006.141v5.306a.178.178,0,0,1,0,.021l-.036.022-.027.052a.686.686,0,0,1-.071,0h-2.735v2.766h6.248c1.07,0,2.49-.072,4.212-.239m-43.383-3.259-.151.207.144-.212a1.365,1.365,0,0,1-.64-1.2,1.522,1.522,0,0,1,.572-1.234,2.24,2.24,0,0,1,1.5-.521h.309a2.265,2.265,0,0,1,1.461.508,1.546,1.546,0,0,1,.631,1.271,1.381,1.381,0,0,1-.631,1.179,2.581,2.581,0,0,1-1.581.48,2.678,2.678,0,0,1-1.609-.48m11.961,3.282h-8.816s0,0,0,0a.2.2,0,0,1-.027-.1v-.372a4.626,4.626,0,0,0,2.183-1.206,3.724,3.724,0,0,0,1.149-2.782,3.677,3.677,0,0,0-.3-1.488c-.046-.1-.095-.194-.147-.291h3.568v-2.665H845.762v2.665h3.392a3.048,3.048,0,0,0-.134.3,4.279,4.279,0,0,0-.211,1.453,3.84,3.84,0,0,0,1.2,2.845,5.414,5.414,0,0,0,2.363,1.212v.327c-.007.038.008.012-.027.054l-.02.018-.014.022s-.006,0-.006.008h-8.763v2.718h20.5Zm-5.935,8.138c-.013.018-.035.048-.063.087h-8.936v-2.117a.9.9,0,0,1,.005-.1h8.977a.289.289,0,0,1,.016.1Zm2.445-4.167a1.737,1.737,0,0,0-1.344-.587H848.051a1.934,1.934,0,0,0-1.432.567,1.973,1.973,0,0,0-.469,1.4v3.466a2.3,2.3,0,0,0,.45,1.442,1.973,1.973,0,0,0,1.5.642h11.111a1.808,1.808,0,0,0,1.382-.628,2.058,2.058,0,0,0,.471-1.381v-3.558a1.819,1.819,0,0,0-.509-1.357m39.328,2.01a2.325,2.325,0,0,1-.851,1.817l.168.193-.174-.186a2.983,2.983,0,0,1-4.07,0,2.336,2.336,0,0,1-.833-1.826,2.451,2.451,0,0,1,.82-1.842,3.186,3.186,0,0,1,4.072.013,2.388,2.388,0,0,1,.868,1.829m-6.837-3.747a5.064,5.064,0,0,0-1.7,3.824,4.991,4.991,0,0,0,1.721,3.735,5.785,5.785,0,0,0,3.972,1.55h0a5.781,5.781,0,0,0,3.922-1.549,4.946,4.946,0,0,0,1.753-3.736,5.066,5.066,0,0,0-1.735-3.824,6.042,6.042,0,0,0-.613-.483H903.3V130.5h-2.989v13.378a5.806,5.806,0,0,0-7.265.522m-8.6,1.6h-5.74c0-.022,0-.05,0-.082v-4.45h-2.866v4.45c0,.026,0,.04,0,.045l-.025.022-.005.014H872.3a.126.126,0,0,1-.038,0h0l0,0a.556.556,0,0,1,0-.073v-4.2h-2.85v4.2a.329.329,0,0,1-.006.066c-.016.02,0,.02-.026.016h-5.447v2.766h20.519Z" transform="translate(-754.84 -120.405)" fill="#809875"/>
  </g>
</svg>
